PathFileType	4	(X/Y/Z)	C:\Users\italobelli\Desktop\GitHub\PTbot_officialCBL\Personal_Results\FLX21_noisy1.trc
DataRate	CameraRate	NumFrames	NumMarkers	Units	OrigDataRate	OrigDataStartFrame	OrigNumFrames
107.000000	107.000000	50	9	m	107.000000	1	750
Frame#	Time		gu		centelbow		EpL		centpxt8		centijc7		ij		ts		aa		ai
			X1	Y1	Z1	X2	Y2	Z2	X3	Y3	Z3	X4	Y4	Z4	X5	Y5	Z5	X6	Y6	Z6	X7	Y7	Z7	X8	Y8	Z8	X9	Y9	Z9

1	0	-0.073895	-0.018035	0.16585	-0.12619	-0.25984	0.18565	-0.10973	-0.25686	0.21321	-0.046816	-0.15316	-0.008669	-0.046816	0.031938	-0.008669	0	0	0	-0.13335	0.032393	0.056511	-0.1001	0.019663	0.17034	-0.15513	-0.079012	0.055875
2	0.0093458	-0.073729	-0.018531	0.16598	-0.12587	-0.26117	0.18583	-0.10934	-0.25816	0.21344	-0.046816	-0.15316	-0.008669	-0.046816	0.031938	-0.008669	0	0	0	-0.13338	0.032383	0.056525	-0.10007	0.019331	0.17037	-0.15542	-0.079033	0.055688
3	0.018692	-0.073562	-0.019026	0.16611	-0.1255	-0.26247	0.18602	-0.10891	-0.25943	0.21367	-0.046816	-0.15316	-0.008669	-0.046816	0.031938	-0.008669	0	0	0	-0.13341	0.032369	0.056541	-0.10003	0.019001	0.1704	-0.15571	-0.079057	0.055508
4	0.028037	-0.073397	-0.01952	0.16623	-0.12507	-0.26375	0.18621	-0.10842	-0.26067	0.21391	-0.046816	-0.15316	-0.008669	-0.046816	0.031938	-0.008669	0	0	0	-0.13344	0.032352	0.056557	-0.099994	0.018671	0.17042	-0.156	-0.079085	0.055334
5	0.037383	-0.073231	-0.020011	0.16635	-0.12459	-0.265	0.18641	-0.10788	-0.26188	0.21414	-0.046816	-0.15316	-0.008669	-0.046816	0.031938	-0.008669	0	0	0	-0.13347	0.03233	0.056574	-0.099956	0.018344	0.17045	-0.15629	-0.079116	0.055167
6	0.046729	-0.073066	-0.020499	0.16647	-0.12405	-0.26621	0.18661	-0.10729	-0.26306	0.21438	-0.046816	-0.15316	-0.008669	-0.046816	0.031938	-0.008669	0	0	0	-0.13351	0.032306	0.056592	-0.099916	0.018018	0.17047	-0.15658	-0.079149	0.055007
7	0.056075	-0.072901	-0.020984	0.16658	-0.12347	-0.2674	0.18682	-0.10665	-0.26421	0.21462	-0.046816	-0.15316	-0.008669	-0.046816	0.031938	-0.008669	0	0	0	-0.13355	0.032277	0.05661	-0.099875	0.017696	0.17048	-0.15687	-0.079187	0.054854
8	0.065421	-0.072736	-0.021464	0.16669	-0.12283	-0.26856	0.18703	-0.10597	-0.26532	0.21485	-0.046816	-0.15316	-0.008669	-0.046816	0.031938	-0.008669	0	0	0	-0.1336	0.032245	0.05663	-0.099833	0.017376	0.1705	-0.15715	-0.079227	0.054708
9	0.074766	-0.072571	-0.021939	0.1668	-0.12215	-0.26969	0.18724	-0.10524	-0.2664	0.21509	-0.046816	-0.15316	-0.008669	-0.046816	0.031938	-0.008669	0	0	0	-0.13365	0.03221	0.05665	-0.09979	0.01706	0.17051	-0.15744	-0.07927	0.05457
10	0.084112	-0.072407	-0.022409	0.1669	-0.12141	-0.27079	0.18746	-0.10446	-0.26744	0.21533	-0.046816	-0.15316	-0.008669	-0.046816	0.031938	-0.008669	0	0	0	-0.1337	0.032171	0.056671	-0.099746	0.016748	0.17052	-0.15772	-0.079315	0.05444
11	0.093458	-0.072243	-0.022872	0.167	-0.12063	-0.27185	0.18769	-0.10364	-0.26845	0.21558	-0.046816	-0.15316	-0.008669	-0.046816	0.031938	-0.008669	0	0	0	-0.13375	0.032128	0.056693	-0.0997	0.016441	0.17053	-0.158	-0.079364	0.054317
12	0.1028	-0.072079	-0.023328	0.1671	-0.1198	-0.27288	0.18792	-0.10277	-0.26942	0.21582	-0.046816	-0.15316	-0.008669	-0.046816	0.031938	-0.008669	0	0	0	-0.13381	0.032083	0.056716	-0.099653	0.016139	0.17053	-0.15828	-0.079416	0.054202
13	0.11215	-0.071916	-0.023776	0.16719	-0.11893	-0.27388	0.18815	-0.10186	-0.27035	0.21606	-0.046816	-0.15316	-0.008669	-0.046816	0.031938	-0.008669	0	0	0	-0.13387	0.032033	0.056739	-0.099605	0.015842	0.17053	-0.15855	-0.07947	0.054096
14	0.1215	-0.071753	-0.024217	0.16728	-0.11801	-0.27485	0.18839	-0.10091	-0.27125	0.21631	-0.046816	-0.15316	-0.008669	-0.046816	0.031938	-0.008669	0	0	0	-0.13393	0.031981	0.056763	-0.099557	0.015551	0.17054	-0.15882	-0.079527	0.053997
15	0.13084	-0.07159	-0.024647	0.16737	-0.11704	-0.27577	0.18863	-0.099919	-0.2721	0.21655	-0.046816	-0.15316	-0.008669	-0.046816	0.031938	-0.008669	0	0	0	-0.13399	0.031926	0.056788	-0.099507	0.015266	0.17053	-0.15909	-0.079586	0.053908
16	0.14019	-0.071427	-0.025069	0.16745	-0.11603	-0.27667	0.18888	-0.098886	-0.27292	0.2168	-0.046816	-0.15316	-0.008669	-0.046816	0.031938	-0.008669	0	0	0	-0.13406	0.031867	0.056814	-0.099456	0.014988	0.17053	-0.15935	-0.079648	0.053827
17	0.14953	-0.071264	-0.025479	0.16752	-0.11498	-0.27752	0.18913	-0.097814	-0.2737	0.21705	-0.046816	-0.15316	-0.008669	-0.046816	0.031938	-0.008669	0	0	0	-0.13413	0.031805	0.05684	-0.099404	0.014718	0.17052	-0.1596	-0.079712	0.053755
18	0.15888	-0.071102	-0.025879	0.1676	-0.11389	-0.27834	0.18938	-0.096702	-0.27444	0.21729	-0.046816	-0.15316	-0.008669	-0.046816	0.031938	-0.008669	0	0	0	-0.1342	0.03174	0.056867	-0.099352	0.014455	0.17052	-0.15986	-0.079778	0.053692
19	0.16822	-0.07094	-0.026267	0.16766	-0.11276	-0.27912	0.18964	-0.095553	-0.27514	0.21754	-0.046816	-0.15316	-0.008669	-0.046816	0.031938	-0.008669	0	0	0	-0.13427	0.031672	0.056894	-0.099298	0.0142	0.17051	-0.1601	-0.079847	0.053638
20	0.17757	-0.070778	-0.026642	0.16773	-0.11159	-0.27987	0.1899	-0.094368	-0.27579	0.21779	-0.046816	-0.15316	-0.008669	-0.046816	0.031938	-0.008669	0	0	0	-0.13435	0.031601	0.056922	-0.099244	0.013954	0.17049	-0.16034	-0.079918	0.053594
21	0.18692	-0.070616	-0.027005	0.16779	-0.11038	-0.28057	0.19017	-0.093146	-0.2764	0.21804	-0.046816	-0.15316	-0.008669	-0.046816	0.031938	-0.008669	0	0	0	-0.13443	0.031528	0.056951	-0.099188	0.013717	0.17048	-0.16058	-0.079991	0.053559
22	0.19626	-0.070454	-0.027353	0.16784	-0.10913	-0.28124	0.19044	-0.091889	-0.27697	0.2183	-0.046816	-0.15316	-0.008669	-0.046816	0.031938	-0.008669	0	0	0	-0.13451	0.031451	0.05698	-0.099132	0.01349	0.17046	-0.16081	-0.080067	0.053534
23	0.20561	-0.070293	-0.027687	0.16789	-0.10785	-0.28186	0.19071	-0.090599	-0.27749	0.21855	-0.046816	-0.15316	-0.008669	-0.046816	0.031938	-0.008669	0	0	0	-0.1346	0.031371	0.05701	-0.099076	0.013272	0.17045	-0.16103	-0.080144	0.053519
24	0.21495	-0.070131	-0.028005	0.16794	-0.10653	-0.28244	0.19099	-0.089275	-0.27797	0.2188	-0.046816	-0.15316	-0.008669	-0.046816	0.031938	-0.008669	0	0	0	-0.13468	0.031289	0.057041	-0.099018	0.013065	0.17043	-0.16124	-0.080223	0.053514
25	0.2243	-0.06997	-0.028308	0.16798	-0.10517	-0.28298	0.19126	-0.087918	-0.27841	0.21906	-0.046816	-0.15316	-0.008669	-0.046816	0.031938	-0.008669	0	0	0	-0.13477	0.031204	0.057072	-0.09896	0.012869	0.17041	-0.16145	-0.080304	0.05352
26	0.23364	-0.069809	-0.028595	0.16801	-0.10378	-0.28348	0.19155	-0.086531	-0.27879	0.21931	-0.046816	-0.15316	-0.008669	-0.046816	0.031938	-0.008669	0	0	0	-0.13486	0.031116	0.057103	-0.098901	0.012684	0.17039	-0.16165	-0.080387	0.053536
27	0.24299	-0.069649	-0.028864	0.16804	-0.10236	-0.28393	0.19183	-0.085112	-0.27913	0.21957	-0.046816	-0.15316	-0.008669	-0.046816	0.031938	-0.008669	0	0	0	-0.13495	0.031025	0.057135	-0.098842	0.012511	0.17036	-0.16184	-0.080472	0.053563
28	0.25234	-0.069488	-0.029115	0.16807	-0.1009	-0.28434	0.19212	-0.083665	-0.27943	0.21982	-0.046816	-0.15316	-0.008669	-0.046816	0.031938	-0.008669	0	0	0	-0.13505	0.030932	0.057167	-0.098782	0.01235	0.17034	-0.16202	-0.080558	0.0536
29	0.26168	-0.069327	-0.029347	0.16808	-0.099416	-0.2847	0.19241	-0.082188	-0.27967	0.22008	-0.046816	-0.15316	-0.008669	-0.046816	0.031938	-0.008669	0	0	0	-0.13515	0.030836	0.0572	-0.098722	0.012202	0.17031	-0.16219	-0.080646	0.053649
30	0.27103	-0.069167	-0.02956	0.1681	-0.097899	-0.28502	0.1927	-0.080684	-0.27986	0.22034	-0.046816	-0.15316	-0.008669	-0.046816	0.031938	-0.008669	0	0	0	-0.13524	0.030738	0.057234	-0.098661	0.012067	0.17028	-0.16235	-0.080735	0.053709
31	0.28037	-0.069007	-0.029754	0.16811	-0.096352	-0.28529	0.193	-0.079153	-0.28001	0.2206	-0.046816	-0.15316	-0.008669	-0.046816	0.031938	-0.008669	0	0	0	-0.13535	0.030638	0.057268	-0.098599	0.011946	0.17025	-0.1625	-0.080826	0.05378
32	0.28972	-0.068847	-0.029926	0.16811	-0.094776	-0.28552	0.1933	-0.077595	-0.2801	0.22085	-0.046816	-0.15316	-0.008669	-0.046816	0.031938	-0.008669	0	0	0	-0.13545	0.030534	0.057302	-0.098537	0.011838	0.17022	-0.16265	-0.080919	0.053863
33	0.29907	-0.068687	-0.030078	0.16811	-0.093173	-0.2857	0.1936	-0.076013	-0.28014	0.22111	-0.046816	-0.15316	-0.008669	-0.046816	0.031938	-0.008669	0	0	0	-0.13555	0.030429	0.057337	-0.098475	0.011746	0.17019	-0.16278	-0.081012	0.053957
34	0.30841	-0.068527	-0.030207	0.1681	-0.091542	-0.28583	0.1939	-0.074406	-0.28013	0.22137	-0.046816	-0.15316	-0.008669	-0.046816	0.031938	-0.008669	0	0	0	-0.13566	0.030321	0.057372	-0.098412	0.011668	0.17016	-0.1629	-0.081107	0.054064
35	0.31776	-0.068367	-0.030314	0.16809	-0.089886	-0.28591	0.19421	-0.072777	-0.28007	0.22164	-0.046816	-0.15316	-0.008669	-0.046816	0.031938	-0.008669	0	0	0	-0.13577	0.030211	0.057407	-0.098349	0.011605	0.17012	-0.16301	-0.081203	0.054182
36	0.3271	-0.068207	-0.030397	0.16807	-0.088205	-0.28594	0.19452	-0.071124	-0.27995	0.2219	-0.046816	-0.15316	-0.008669	-0.046816	0.031938	-0.008669	0	0	0	-0.13588	0.030099	0.057443	-0.098286	0.011559	0.17009	-0.16311	-0.081301	0.054313
37	0.33645	-0.068048	-0.030456	0.16804	-0.086499	-0.28592	0.19483	-0.06945	-0.27978	0.22216	-0.046816	-0.15316	-0.008669	-0.046816	0.031938	-0.008669	0	0	0	-0.13599	0.029984	0.057479	-0.098222	0.011529	0.17005	-0.16319	-0.081399	0.054456
38	0.34579	-0.067888	-0.030491	0.16801	-0.08477	-0.28585	0.19514	-0.067756	-0.27956	0.22242	-0.046816	-0.15316	-0.008669	-0.046816	0.031938	-0.008669	0	0	0	-0.1361	0.029867	0.057516	-0.098158	0.011516	0.17001	-0.16327	-0.081498	0.054612
39	0.35514	-0.067729	-0.0305	0.16797	-0.083019	-0.28572	0.19545	-0.066042	-0.27928	0.22268	-0.046816	-0.15316	-0.008669	-0.046816	0.031938	-0.008669	0	0	0	-0.13622	0.029749	0.057552	-0.098094	0.01152	0.16997	-0.16333	-0.081599	0.054781
40	0.36449	-0.067569	-0.030483	0.16792	-0.081246	-0.28555	0.19577	-0.064309	-0.27894	0.22295	-0.046816	-0.15316	-0.008669	-0.046816	0.031938	-0.008669	0	0	0	-0.13633	0.029628	0.05759	-0.09803	0.011541	0.16993	-0.16338	-0.0817	0.054963
41	0.37383	-0.06741	-0.030439	0.16787	-0.079453	-0.28532	0.19609	-0.062558	-0.27854	0.22321	-0.046816	-0.15316	-0.008669	-0.046816	0.031938	-0.008669	0	0	0	-0.13645	0.029505	0.057627	-0.097966	0.011581	0.16989	-0.16341	-0.081802	0.055158
42	0.38318	-0.067251	-0.030368	0.16782	-0.07764	-0.28504	0.19641	-0.06079	-0.27809	0.22348	-0.046816	-0.15316	-0.008669	-0.046816	0.031938	-0.008669	0	0	0	-0.13657	0.02938	0.057665	-0.097901	0.011639	0.16985	-0.16343	-0.081904	0.055367
43	0.39252	-0.067092	-0.030269	0.16775	-0.075809	-0.2847	0.19673	-0.059007	-0.27758	0.22374	-0.046816	-0.15316	-0.008669	-0.046816	0.031938	-0.008669	0	0	0	-0.13669	0.029253	0.057702	-0.097837	0.011717	0.16981	-0.16344	-0.082008	0.055589
44	0.40187	-0.066933	-0.030141	0.16768	-0.07396	-0.28431	0.19705	-0.057207	-0.277	0.22401	-0.046816	-0.15316	-0.008669	-0.046816	0.031938	-0.008669	0	0	0	-0.13681	0.029125	0.05774	-0.097772	0.011814	0.16977	-0.16343	-0.082112	0.055824
45	0.41121	-0.066773	-0.029984	0.16761	-0.072093	-0.28386	0.19737	-0.055394	-0.27637	0.22427	-0.046816	-0.15316	-0.008669	-0.046816	0.031938	-0.008669	0	0	0	-0.13693	0.028994	0.057779	-0.097708	0.011931	0.16973	-0.16341	-0.082216	0.056074
46	0.42056	-0.066614	-0.029796	0.16752	-0.070211	-0.28335	0.1977	-0.053567	-0.27568	0.22454	-0.046816	-0.15316	-0.008669	-0.046816	0.031938	-0.008669	0	0	0	-0.13706	0.028862	0.057817	-0.097643	0.012068	0.16968	-0.16337	-0.082321	0.056337
47	0.42991	-0.066455	-0.029578	0.16743	-0.068314	-0.28279	0.19802	-0.051728	-0.27492	0.2248	-0.046816	-0.15316	-0.008669	-0.046816	0.031938	-0.008669	0	0	0	-0.13718	0.028728	0.057856	-0.097579	0.012226	0.16964	-0.16332	-0.082426	0.056615
48	0.43925	-0.066296	-0.029328	0.16733	-0.066403	-0.28217	0.19835	-0.049877	-0.27411	0.22507	-0.046816	-0.15316	-0.008669	-0.046816	0.031938	-0.008669	0	0	0	-0.13731	0.028593	0.057895	-0.097514	0.012406	0.1696	-0.16325	-0.082532	0.056908
49	0.4486	-0.066137	-0.029046	0.16723	-0.064478	-0.28149	0.19868	-0.048015	-0.27323	0.22534	-0.046816	-0.15316	-0.008669	-0.046816	0.031938	-0.008669	0	0	0	-0.13744	0.028456	0.057934	-0.09745	0.012607	0.16955	-0.16316	-0.082638	0.057215
50	0.45794	-0.065978	-0.028731	0.16712	-0.062541	-0.28075	0.19901	-0.046144	-0.27228	0.2256	-0.046816	-0.15316	-0.008669	-0.046816	0.031938	-0.008669	0	0	0	-0.13757	0.028317	0.057973	-0.097386	0.012831	0.16951	-0.16306	-0.082744	0.057536
